<?xml version="1.0" standalone="no"?>
<!DOCTYPE svg PUBLIC "-//W3C//DTD SVG 20010904//EN"
 "http://www.w3.org/TR/2001/REC-SVG-20010904/DTD/svg10.dtd">
<svg version="1.0" xmlns="http://www.w3.org/2000/svg"
 width="512.000000pt" height="512.000000pt" viewBox="0 0 512.000000 512.000000"
 preserveAspectRatio="xMidYMid meet">

<g transform="translate(0.000000,512.000000) scale(0.100000,-0.100000)"
fill="#181819" stroke="none">
<path d="M363 4785 c-85 -23 -153 -63 -219 -129 -68 -68 -105 -132 -128 -223
-14 -54 -16 -257 -16 -1873 0 -1982 -3 -1865 57 -1984 33 -65 134 -166 201
-200 118 -60 -28 -56 2300 -56 2336 0 2186 -4 2306 57 65 33 166 134 200 201
59 117 56 2 56 1982 0 1980 3 1865 -56 1982 -34 67 -135 168 -200 201 -120 61
31 57 -2310 56 -1808 0 -2147 -3 -2191 -14z m1217 -325 c18 -18 20 -33 20
-140 0 -107 -2 -122 -20 -140 -20 -20 -33 -20 -620 -20 -702 0 -640 -11 -640
114 0 82 10 119 43 155 47 50 43 50 640 51 544 0 557 0 577 -20z m3146 -6 c15
-11 37 -33 48 -48 20 -27 21 -41 24 -436 3 -400 2 -410 -18 -430 -20 -20 -22
-20 -2220 -20 -2187 0 -2200 0 -2220 20 -19 19 -20 33 -20 220 0 187 1 201 20
220 20 20 33 20 720 20 l700 0 149 223 c82 123 156 231 166 240 15 16 107 17
1320 15 1299 -3 1304 -3 1331 -24z m-1926 -1199 c480 -106 833 -462 937 -945
13 -60 18 -128 18 -230 0 -156 -15 -253 -62 -390 -115 -338 -399 -623 -738
-741 -141 -49 -236 -64 -395 -64 -212 0 -372 38 -552 133 -268 140 -481 385
-579 667 -49 141 -64 236 -64 395 0 159 15 254 64 395 137 395 489 701 896
779 44 8 89 17 100 20 42 10 303 -3 375 -19z"/>
<path d="M2405 2946 c-208 -41 -406 -160 -532 -319 -67 -85 -143 -242 -169
-347 -14 -53 -19 -112 -19 -200 0 -153 19 -236 85 -375 89 -189 227 -327 415
-416 142 -67 213 -83 370 -84 159 0 238 18 380 85 189 89 327 227 416 415 68
144 83 213 83 375 0 162 -15 231 -83 375 -58 121 -146 234 -244 312 -82 64
-241 143 -337 168 -89 22 -277 28 -365 11z m242 -252 c52 -39 68 -71 68 -134
0 -97 -49 -145 -166 -161 -99 -14 -156 -40 -212 -97 -57 -58 -82 -115 -96
-211 -16 -117 -64 -166 -161 -166 -63 0 -95 16 -134 69 -18 23 -21 42 -20 114
2 255 181 494 431 575 101 33 115 36 195 33 50 -1 74 -7 95 -22z"/>
</g>
</svg>
